<svg width="181" height="209" viewBox="0 0 181 209" fill="none" xmlns="http://www.w3.org/2000/svg">
<g opacity="0.25">
<path d="M167.521 9.0707L167.517 9.06968L161.304 7.2475L160.783 7.09443L160.37 7.44937L116.136 45.5479L116.134 45.5495L111.497 49.5236L111.148 49.8229V50.2829V60.1762L108.307 62.6101L108.305 62.6123L105.281 65.2214L104.935 65.5205V65.9785V76.3318V77.0838L105.657 77.2925L107.515 77.8292L107.521 77.8309L111.148 78.9014V80.8828L108.307 83.3167L108.305 83.3189L105.281 85.9279L104.935 86.2271V86.6851V97.0384V97.7904L105.657 97.9991L107.515 98.5358L107.521 98.5375L111.148 99.608V101.589L108.307 104.023L108.305 104.026L105.281 106.635L104.935 106.934V107.392V117.745V118.497L105.657 118.706L107.515 119.242L107.521 119.244L111.148 120.315V122.296L108.307 124.73L108.305 124.732L105.281 127.341L104.935 127.64V128.098V138.452V139.204L105.657 139.412L107.515 139.949L107.521 139.951L111.148 141.021V143.003L108.307 145.436L108.305 145.439L105.281 148.048L104.935 148.347V148.805V159.158V159.91L105.657 160.119L107.515 160.656L107.521 160.657L111.148 161.728V164.169V164.921L111.87 165.13L113.734 165.668L113.739 165.67L116.505 166.454L116.514 166.456L122.718 168.276L123.24 168.429L123.652 168.074L172.486 125.998L172.834 125.699V125.241V11.3959V10.6499L172.119 10.4373L167.521 9.0707Z" stroke="#D6E1EF" stroke-width="2" stroke-miterlimit="10"/>
<path d="M123.041 53.4717V63.825L116.828 62.0028L114.053 61.2159L112.189 60.6776V50.3243L116.828 51.6909L118.402 52.1464L121.177 52.9333L123.041 53.4717Z" fill="url(#paint0_linear)"/>
<path d="M116.828 69.1673V79.5206L112.189 78.1954L107.84 76.9115L105.976 76.3732V66.0199L112.189 67.8421L116.828 69.1673Z" fill="url(#paint1_linear)"/>
<path d="M171.875 11.3959L123.041 53.4717L121.177 52.9333L118.402 52.1465L116.828 51.6909L112.189 50.3243L116.828 46.3486L161.023 8.24847L167.236 10.0292L171.875 11.3959Z" fill="url(#paint2_linear)"/>
<path d="M171.875 11.3959V125.282L123.041 167.358V157.005L116.828 162.347V151.994L123.041 146.651V136.298L116.828 141.64V131.287L123.041 125.945V115.591L116.828 120.934V110.58L123.041 105.238V94.8848L116.828 100.227V89.8739L123.041 84.5316V74.1783L116.828 79.5206V69.1673L123.041 63.825V53.4717L171.875 11.3959Z" fill="url(#paint3_linear)"/>
<path d="M123.041 63.825L116.828 69.1673L112.189 67.842L105.976 66.0199L108.999 63.4108L112.189 60.6776L114.053 61.2159L116.828 62.0028L123.041 63.825Z" fill="url(#paint4_linear)"/>
<path d="M116.828 89.8739V100.227L112.189 98.902L107.84 97.6181L105.976 97.0798V86.7265L112.189 88.5486L116.828 89.8739Z" fill="url(#paint5_linear)"/>
<path d="M123.041 84.5316L116.828 89.8739L112.189 88.5486L105.976 86.7265L108.999 84.1174L112.189 81.3842L114.053 81.9225L116.828 82.7094L123.041 84.5316Z" fill="url(#paint6_linear)"/>
<path d="M116.828 110.58V120.934L112.189 119.609L107.84 118.325L105.976 117.786V107.433L112.189 109.255L116.828 110.58Z" fill="url(#paint7_linear)"/>
<path d="M123.041 105.238L116.828 110.58L112.189 109.255L105.976 107.433L108.999 104.824L112.189 102.091L114.053 102.629L116.828 103.416L123.041 105.238Z" fill="url(#paint8_linear)"/>
<path d="M123.041 74.1783V84.5316L116.828 82.7094L114.053 81.9226L112.189 81.3842V78.1954L116.828 79.5206L123.041 74.1783Z" fill="url(#paint9_linear)"/>
<path d="M123.041 94.8849V105.238L116.828 103.416L114.053 102.629L112.189 102.091V98.902L116.828 100.227L123.041 94.8849Z" fill="url(#paint10_linear)"/>
<path d="M116.828 131.287V141.64L112.189 140.315L107.84 139.031L105.976 138.493V128.14L112.189 129.962L116.828 131.287Z" fill="url(#paint11_linear)"/>
<path d="M123.041 125.945L116.828 131.287L112.189 129.962L105.976 128.14L108.999 125.531L112.189 122.797L114.053 123.336L116.828 124.123L123.041 125.945Z" fill="url(#paint12_linear)"/>
<path d="M123.041 115.591V125.945L116.828 124.123L114.053 123.336L112.189 122.797V119.609L116.828 120.934L123.041 115.591Z" fill="url(#paint13_linear)"/>
<path d="M116.828 151.994V162.347L112.189 161.022L107.84 159.738L105.976 159.2V148.846L112.189 150.668L116.828 151.994Z" fill="url(#paint14_linear)"/>
<path d="M123.041 146.651L116.828 151.994L112.189 150.668L105.976 148.846L108.999 146.237L112.189 143.504L114.053 144.042L116.828 144.829L123.041 146.651Z" fill="url(#paint15_linear)"/>
<path d="M123.041 136.298V146.651L116.828 144.829L114.053 144.042L112.189 143.504V140.315L116.828 141.64L123.041 136.298Z" fill="url(#paint16_linear)"/>
<path d="M123.041 157.005V167.358L116.828 165.536L114.053 164.749L112.189 164.211V161.022L116.828 162.347L123.041 157.005Z" fill="url(#paint17_linear)"/>
</g>
<g filter="url(#filter0_d)">
<path d="M113.189 153.105V151.994L116.553 152.955L117.071 153.103L117.48 152.752L123.693 147.41L124.041 147.11V146.651V136.298V135.549L123.322 135.338L117.109 133.516L117.101 133.514L114.33 132.728L114.326 132.727L113.189 132.399V131.288L116.553 132.249L117.071 132.397L117.48 132.045L123.693 126.703L124.041 126.404V125.945V115.591V114.843L123.322 114.632L117.109 112.81L117.101 112.807L114.33 112.022L114.326 112.02L113.189 111.692V110.581L116.553 111.542L117.071 111.69L117.48 111.339L123.693 105.996L124.041 105.697V105.238V94.8849V94.136L123.322 93.9253L117.109 92.1031L117.101 92.1006L114.33 91.3151L114.326 91.3138L113.189 90.9854V89.8743L116.553 90.8354L117.071 90.9834L117.48 90.6321L123.693 85.2898L124.041 84.9906V84.5316V74.1783V73.4295L123.322 73.2187L117.109 71.3965L117.101 71.394L114.33 70.6085L114.326 70.6072L113.189 70.2789V69.1677L116.553 70.1288L117.071 70.2768L117.48 69.9255L123.693 64.5832L124.041 64.284V63.825V53.4717V52.7174L123.316 52.5102L118.68 51.1859L118.677 51.1849L117.111 50.7317L117.106 50.7304L112.472 49.365L112.468 49.3641L38.6994 27.912L38.179 27.7607L37.7682 28.114L31.5552 33.4563L31.2072 33.7556V34.2146V148.101V148.851L31.9277 149.061L62.6608 158.006L62.6612 158.006L71.6074 160.615L71.6086 160.615L80.5968 163.225L89.5849 165.834L98.5727 168.442L98.573 168.443L105.697 170.513L105.698 170.514L107.557 171.05L107.562 171.052L111.906 172.334L111.914 172.337L116.553 173.662L117.071 173.81L117.48 173.459L123.693 168.116L124.041 167.817V167.358V157.005V156.256L123.322 156.045L117.109 154.223L117.101 154.22L114.33 153.435L114.326 153.434L113.189 153.105Z" stroke="#D6E1EF" stroke-width="2" stroke-miterlimit="10"/>
</g>
<path d="M123.041 74.1783V84.5316L116.828 89.8739V79.5206L123.041 74.1783Z" fill="url(#paint18_linear)"/>
<path d="M123.041 94.8849V105.238L116.828 110.58V100.227L123.041 94.8849Z" fill="url(#paint19_linear)"/>
<path d="M123.041 115.591V125.945L116.828 131.287V120.934L123.041 115.591Z" fill="url(#paint20_linear)"/>
<path d="M123.041 136.298V146.651L116.828 151.994V141.64L123.041 136.298Z" fill="url(#paint21_linear)"/>
<path d="M123.041 157.005V167.358L116.828 172.7V162.347L123.041 157.005Z" fill="url(#paint22_linear)"/>
<path d="M123.041 53.4717L116.828 58.814L112.189 57.4888L105.976 55.6666L32.2072 34.2146L38.4201 28.8723L112.189 50.3243L116.828 51.6909L118.402 52.1465L123.041 53.4717Z" fill="url(#paint23_linear)"/>
<path d="M105.976 66.0199V76.3732L107.84 76.9115L112.189 78.1954L116.828 79.5206V89.8739L112.189 88.5487L107.84 87.2648L105.976 86.7265V97.0798L107.84 97.6181L112.189 98.902L116.828 100.227V110.58L112.189 109.255L107.84 107.971L105.976 107.433V117.786L107.84 118.325L112.189 119.609L116.828 120.934V131.287L112.189 129.962L107.84 128.678L105.976 128.14V138.493L107.84 139.031L112.189 140.315L116.828 141.64V151.994L112.189 150.668L107.84 149.385L105.976 148.846V159.2L107.84 159.738L112.189 161.022L116.828 162.347V172.7L112.189 171.375L107.84 170.091L105.976 169.553L98.8518 167.482L89.8636 164.873L80.8755 162.264L71.8874 159.655L62.9407 157.046L32.2072 148.101V34.2146L105.976 55.6666L112.189 57.4888L116.828 58.814V69.1673L112.189 67.8421L105.976 66.0199Z" fill="url(#paint24_linear)"/>
<path d="M123.041 53.4717V63.825L116.828 69.1673V58.814L123.041 53.4717Z" fill="url(#paint25_linear)"/>
<path d="M112.189 67.8421V71.0309L108.999 73.7641L105.976 76.3732V66.0199L112.189 67.8421Z" fill="url(#paint26_linear)"/>
<path d="M112.189 88.5486V91.7375L108.999 94.4707L105.976 97.0798V86.7265L107.84 87.2648L112.189 88.5486Z" fill="url(#paint27_linear)"/>
<path d="M112.189 109.255V112.444L108.999 115.177L105.976 117.786V107.433L107.84 107.971L112.189 109.255Z" fill="url(#paint28_linear)"/>
<path d="M112.189 129.962V133.151L108.999 135.884L105.976 138.493V128.14L107.84 128.678L112.189 129.962Z" fill="url(#paint29_linear)"/>
<path d="M112.189 150.668V153.857L108.999 156.591L105.976 159.2V148.846L107.84 149.385L112.189 150.668Z" fill="url(#paint30_linear)"/>
<path d="M123.041 74.1783L116.828 79.5206L112.189 78.1953L107.84 76.9115L105.976 76.3732L108.999 73.7641L112.189 71.0309L114.053 71.5692L116.828 72.3561L123.041 74.1783Z" fill="url(#paint31_linear)"/>
<path d="M123.041 94.8849L116.828 100.227L112.189 98.9019L107.84 97.6181L105.976 97.0798L108.999 94.4707L112.189 91.7375L114.053 92.2758L116.828 93.0627L123.041 94.8849Z" fill="url(#paint32_linear)"/>
<path d="M123.041 94.8849L116.828 100.227L123.041 94.8849Z" fill="white"/>
<path d="M123.041 115.591L116.828 120.934L112.189 119.609L107.84 118.325L105.976 117.786L108.999 115.177L112.189 112.444L114.053 112.982L116.828 113.769L123.041 115.591Z" fill="url(#paint33_linear)"/>
<path d="M123.041 115.591L116.828 120.934L123.041 115.591Z" fill="white"/>
<path d="M123.041 136.298L116.828 141.64L112.189 140.315L107.84 139.031L105.976 138.493L108.999 135.884L112.189 133.151L114.053 133.689L116.828 134.476L123.041 136.298Z" fill="url(#paint34_linear)"/>
<path d="M123.041 136.298L116.828 141.64L123.041 136.298Z" fill="white"/>
<path d="M123.041 157.005L116.828 162.347L112.189 161.022L107.84 159.738L105.976 159.2L108.999 156.591L112.189 153.857L114.053 154.396L116.828 155.182L123.041 157.005Z" fill="url(#paint35_linear)"/>
<path d="M123.041 157.005L116.828 162.347L123.041 157.005Z" fill="white"/>
<defs>
<filter id="filter0_d" x="0.207153" y="0.6492" width="154.834" height="208.27" filterUnits="userSpaceOnUse" color-interpolation-filters="sRGB">
<feFlood flood-opacity="0" result="BackgroundImageFix"/>
<feColorMatrix in="SourceAlpha" type="matrix" values="0 0 0 0 0 0 0 0 0 0 0 0 0 0 0 0 0 0 127 0"/>
<feOffset dy="4"/>
<feGaussianBlur stdDeviation="15"/>
<feColorMatrix type="matrix" values="0 0 0 0 0.839216 0 0 0 0 0.882353 0 0 0 0 0.937255 0 0 0 1 0"/>
<feBlend mode="normal" in2="BackgroundImageFix" result="effect1_dropShadow"/>
<feBlend mode="normal" in="SourceGraphic" in2="effect1_dropShadow" result="shape"/>
</filter>
<linearGradient id="paint0_linear" x1="110.394" y1="59.4541" x2="136.92" y2="31.0997" gradientUnits="userSpaceOnUse">
<stop stop-color="#222529"/>
<stop offset="0.817708" stop-color="#EAF1F9"/>
</linearGradient>
<linearGradient id="paint1_linear" x1="104.181" y1="75.1497" x2="130.707" y2="46.7953" gradientUnits="userSpaceOnUse">
<stop stop-color="#222529"/>
<stop offset="0.817708" stop-color="#EAF1F9"/>
</linearGradient>
<linearGradient id="paint2_linear" x1="94.4018" y1="61.4396" x2="226.612" y2="6.42885" gradientUnits="userSpaceOnUse">
<stop stop-color="#24272B"/>
<stop offset="1" stop-color="#EAF1F9"/>
</linearGradient>
<linearGradient id="paint3_linear" x1="107.725" y1="116.865" x2="343.972" y2="5.97643" gradientUnits="userSpaceOnUse">
<stop stop-color="#222529"/>
<stop offset="0.817708" stop-color="#EAF1F9"/>
</linearGradient>
<linearGradient id="paint4_linear" x1="112.647" y1="72.6277" x2="121.812" y2="58.5114" gradientUnits="userSpaceOnUse">
<stop stop-color="#24272B"/>
<stop offset="1" stop-color="#EAF1F9"/>
</linearGradient>
<linearGradient id="paint5_linear" x1="104.181" y1="95.8563" x2="130.707" y2="67.5019" gradientUnits="userSpaceOnUse">
<stop stop-color="#222529"/>
<stop offset="0.817708" stop-color="#EAF1F9"/>
</linearGradient>
<linearGradient id="paint6_linear" x1="112.647" y1="93.3343" x2="121.812" y2="79.218" gradientUnits="userSpaceOnUse">
<stop stop-color="#24272B"/>
<stop offset="1" stop-color="#EAF1F9"/>
</linearGradient>
<linearGradient id="paint7_linear" x1="104.181" y1="116.563" x2="130.707" y2="88.2086" gradientUnits="userSpaceOnUse">
<stop stop-color="#222529"/>
<stop offset="0.817708" stop-color="#EAF1F9"/>
</linearGradient>
<linearGradient id="paint8_linear" x1="112.647" y1="114.041" x2="121.812" y2="99.9245" gradientUnits="userSpaceOnUse">
<stop stop-color="#24272B"/>
<stop offset="1" stop-color="#EAF1F9"/>
</linearGradient>
<linearGradient id="paint9_linear" x1="110.394" y1="81.1797" x2="129.706" y2="54.2606" gradientUnits="userSpaceOnUse">
<stop stop-color="#222529"/>
<stop offset="0.817708" stop-color="#EAF1F9"/>
</linearGradient>
<linearGradient id="paint10_linear" x1="110.394" y1="101.886" x2="129.706" y2="74.9672" gradientUnits="userSpaceOnUse">
<stop stop-color="#222529"/>
<stop offset="0.817708" stop-color="#EAF1F9"/>
</linearGradient>
<linearGradient id="paint11_linear" x1="104.181" y1="137.269" x2="130.707" y2="108.915" gradientUnits="userSpaceOnUse">
<stop stop-color="#222529"/>
<stop offset="0.817708" stop-color="#EAF1F9"/>
</linearGradient>
<linearGradient id="paint12_linear" x1="112.647" y1="134.747" x2="121.812" y2="120.631" gradientUnits="userSpaceOnUse">
<stop stop-color="#24272B"/>
<stop offset="1" stop-color="#EAF1F9"/>
</linearGradient>
<linearGradient id="paint13_linear" x1="110.394" y1="122.593" x2="129.706" y2="95.6738" gradientUnits="userSpaceOnUse">
<stop stop-color="#222529"/>
<stop offset="0.817708" stop-color="#EAF1F9"/>
</linearGradient>
<linearGradient id="paint14_linear" x1="104.181" y1="157.976" x2="130.707" y2="129.622" gradientUnits="userSpaceOnUse">
<stop stop-color="#222529"/>
<stop offset="0.817708" stop-color="#EAF1F9"/>
</linearGradient>
<linearGradient id="paint15_linear" x1="112.647" y1="155.454" x2="121.812" y2="141.338" gradientUnits="userSpaceOnUse">
<stop stop-color="#24272B"/>
<stop offset="1" stop-color="#EAF1F9"/>
</linearGradient>
<linearGradient id="paint16_linear" x1="110.394" y1="143.299" x2="129.706" y2="116.38" gradientUnits="userSpaceOnUse">
<stop stop-color="#222529"/>
<stop offset="0.817708" stop-color="#EAF1F9"/>
</linearGradient>
<linearGradient id="paint17_linear" x1="110.394" y1="164.006" x2="129.706" y2="137.087" gradientUnits="userSpaceOnUse">
<stop stop-color="#222529"/>
<stop offset="0.817708" stop-color="#EAF1F9"/>
</linearGradient>
<linearGradient id="paint18_linear" x1="115.801" y1="84.7924" x2="141.279" y2="71.3801" gradientUnits="userSpaceOnUse">
<stop stop-color="#222529"/>
<stop offset="0.817708" stop-color="#EAF1F9"/>
</linearGradient>
<linearGradient id="paint19_linear" x1="115.801" y1="105.499" x2="141.279" y2="92.0867" gradientUnits="userSpaceOnUse">
<stop stop-color="#222529"/>
<stop offset="0.817708" stop-color="#EAF1F9"/>
</linearGradient>
<linearGradient id="paint20_linear" x1="115.801" y1="126.206" x2="141.279" y2="112.793" gradientUnits="userSpaceOnUse">
<stop stop-color="#222529"/>
<stop offset="0.817708" stop-color="#EAF1F9"/>
</linearGradient>
<linearGradient id="paint21_linear" x1="115.801" y1="146.912" x2="141.279" y2="133.5" gradientUnits="userSpaceOnUse">
<stop stop-color="#222529"/>
<stop offset="0.817708" stop-color="#EAF1F9"/>
</linearGradient>
<linearGradient id="paint22_linear" x1="115.801" y1="167.619" x2="141.279" y2="154.206" gradientUnits="userSpaceOnUse">
<stop stop-color="#222529"/>
<stop offset="0.817708" stop-color="#EAF1F9"/>
</linearGradient>
<linearGradient id="paint23_linear" x1="5.13763" y1="64.0895" x2="128.414" y2="-53.8131" gradientUnits="userSpaceOnUse">
<stop stop-color="#24272B"/>
<stop offset="1" stop-color="#EAF1F9"/>
</linearGradient>
<linearGradient id="paint24_linear" x1="18.2143" y1="127.865" x2="285.14" y2="-89.0381" gradientUnits="userSpaceOnUse">
<stop stop-color="#222529"/>
<stop offset="0.817708" stop-color="#EAF1F9"/>
</linearGradient>
<linearGradient id="paint25_linear" x1="115.801" y1="64.0858" x2="141.279" y2="50.6735" gradientUnits="userSpaceOnUse">
<stop stop-color="#222529"/>
<stop offset="0.817708" stop-color="#EAF1F9"/>
</linearGradient>
<linearGradient id="paint26_linear" x1="104.948" y1="73.0213" x2="124.827" y2="57.1572" gradientUnits="userSpaceOnUse">
<stop stop-color="#222529"/>
<stop offset="0.817708" stop-color="#EAF1F9"/>
</linearGradient>
<linearGradient id="paint27_linear" x1="104.948" y1="93.7278" x2="124.827" y2="77.8638" gradientUnits="userSpaceOnUse">
<stop stop-color="#222529"/>
<stop offset="0.817708" stop-color="#EAF1F9"/>
</linearGradient>
<linearGradient id="paint28_linear" x1="104.948" y1="114.434" x2="124.827" y2="98.5704" gradientUnits="userSpaceOnUse">
<stop stop-color="#222529"/>
<stop offset="0.817708" stop-color="#EAF1F9"/>
</linearGradient>
<linearGradient id="paint29_linear" x1="104.948" y1="135.141" x2="124.827" y2="119.277" gradientUnits="userSpaceOnUse">
<stop stop-color="#222529"/>
<stop offset="0.817708" stop-color="#EAF1F9"/>
</linearGradient>
<linearGradient id="paint30_linear" x1="104.948" y1="155.848" x2="124.827" y2="139.984" gradientUnits="userSpaceOnUse">
<stop stop-color="#222529"/>
<stop offset="0.817708" stop-color="#EAF1F9"/>
</linearGradient>
<linearGradient id="paint31_linear" x1="112.647" y1="82.981" x2="121.812" y2="68.8647" gradientUnits="userSpaceOnUse">
<stop stop-color="#24272B"/>
<stop offset="1" stop-color="#EAF1F9"/>
</linearGradient>
<linearGradient id="paint32_linear" x1="112.647" y1="103.688" x2="121.812" y2="89.5713" gradientUnits="userSpaceOnUse">
<stop stop-color="#24272B"/>
<stop offset="1" stop-color="#EAF1F9"/>
</linearGradient>
<linearGradient id="paint33_linear" x1="112.647" y1="124.394" x2="121.812" y2="110.278" gradientUnits="userSpaceOnUse">
<stop stop-color="#24272B"/>
<stop offset="1" stop-color="#EAF1F9"/>
</linearGradient>
<linearGradient id="paint34_linear" x1="112.647" y1="145.101" x2="121.812" y2="130.984" gradientUnits="userSpaceOnUse">
<stop stop-color="#24272B"/>
<stop offset="1" stop-color="#EAF1F9"/>
</linearGradient>
<linearGradient id="paint35_linear" x1="112.647" y1="165.807" x2="121.812" y2="151.691" gradientUnits="userSpaceOnUse">
<stop stop-color="#24272B"/>
<stop offset="1" stop-color="#EAF1F9"/>
</linearGradient>
</defs>
</svg>
