<svg width="11" height="11" viewBox="0 0 11 11" fill="none" xmlns="http://www.w3.org/2000/svg">
<path d="M7.179 5.452C7.459 5.54067 7.67833 5.69 7.837 5.9C7.99567 6.10533 8.075 6.35967 8.075 6.663C8.075 7.09233 7.907 7.42367 7.571 7.657C7.23967 7.88567 6.75433 8 6.115 8H3.581V3.1H5.975C6.57233 3.1 7.02967 3.21433 7.347 3.443C7.669 3.67167 7.83 3.982 7.83 4.374C7.83 4.612 7.77167 4.82433 7.655 5.011C7.543 5.19767 7.38433 5.34467 7.179 5.452ZM4.708 3.954V5.109H5.835C6.115 5.109 6.32733 5.06 6.472 4.962C6.61667 4.864 6.689 4.71933 6.689 4.528C6.689 4.33667 6.61667 4.19433 6.472 4.101C6.32733 4.003 6.115 3.954 5.835 3.954H4.708ZM6.031 7.146C6.32967 7.146 6.55367 7.097 6.703 6.999C6.857 6.901 6.934 6.74933 6.934 6.544C6.934 6.138 6.633 5.935 6.031 5.935H4.708V7.146H6.031Z" fill="#6D737A"/>
<path fill-rule="evenodd" clip-rule="evenodd" d="M7.792 1H3.4575C1.947 1 1 2.0695 1 3.583V7.667C1 9.1805 1.9425 10.25 3.4575 10.25H7.7915C9.307 10.25 10.25 9.1805 10.25 7.667V3.583C10.25 2.0695 9.307 1 7.792 1Z" stroke="#6D737A" stroke-linecap="round" stroke-linejoin="round"/>
</svg>
