<svg width="14" height="15" viewBox="0 0 14 15" fill="none" xmlns="http://www.w3.org/2000/svg">
<path fill-rule="evenodd" clip-rule="evenodd" d="M12.1372 4.60694L11.7741 3.97689C11.4669 3.44376 10.7862 3.25985 10.2524 3.56575V3.56575C9.99826 3.71545 9.69503 3.75792 9.40956 3.6838C9.12409 3.60968 8.87983 3.42505 8.73064 3.17063C8.63466 3.00892 8.58308 2.82473 8.58113 2.63669V2.63669C8.58979 2.33521 8.47605 2.04307 8.26583 1.8268C8.0556 1.61054 7.76679 1.48858 7.46519 1.48871H6.73369C6.43821 1.48871 6.15491 1.60645 5.94648 1.81588C5.73805 2.02532 5.62166 2.30918 5.62309 2.60465V2.60465C5.61433 3.2147 5.11726 3.70464 4.50714 3.70457C4.3191 3.70262 4.13491 3.65105 3.9732 3.55507V3.55507C3.43935 3.24917 2.75863 3.43309 2.45146 3.96621L2.06168 4.60694C1.75489 5.13939 1.9363 5.81968 2.46748 6.12868V6.12868C2.81276 6.32802 3.02546 6.69642 3.02546 7.09511C3.02546 7.49381 2.81276 7.86221 2.46748 8.06155V8.06155C1.93697 8.36846 1.75536 9.0471 2.06168 9.57795V9.57795L2.4301 10.2133C2.57402 10.473 2.8155 10.6647 3.10109 10.7458C3.38669 10.827 3.69285 10.791 3.95184 10.6458V10.6458C4.20644 10.4973 4.50984 10.4566 4.79459 10.5328C5.07935 10.609 5.32187 10.7958 5.46824 11.0516C5.56422 11.2133 5.61579 11.3975 5.61775 11.5856V11.5856C5.61775 12.2019 6.11737 12.7015 6.73369 12.7015H7.46519C8.07943 12.7015 8.57819 12.2052 8.58113 11.5909V11.5909C8.5797 11.2945 8.69682 11.0098 8.90641 10.8003C9.116 10.5907 9.40067 10.4735 9.69707 10.475C9.88466 10.48 10.0681 10.5314 10.231 10.6245V10.6245C10.7635 10.9313 11.4438 10.7499 11.7528 10.2187V10.2187L12.1372 9.57795C12.286 9.32254 12.3268 9.01834 12.2507 8.73271C12.1745 8.44709 11.9876 8.20362 11.7314 8.05621V8.05621C11.4752 7.90881 11.2883 7.66533 11.2121 7.37971C11.136 7.09409 11.1768 6.78989 11.3256 6.53447C11.4224 6.36553 11.5625 6.22545 11.7314 6.12868V6.12868C12.2594 5.81985 12.4404 5.14353 12.1372 4.61228V4.61228V4.60694Z" stroke="#D6E1EF" stroke-linecap="round" stroke-linejoin="round"/>
<ellipse cx="7.10209" cy="7.09513" rx="1.53776" ry="1.53776" stroke="#D6E1EF" stroke-linecap="round" stroke-linejoin="round"/>
</svg>
