<svg width="311" height="181" viewBox="0 0 311 181" fill="none" xmlns="http://www.w3.org/2000/svg">
<g filter="url(#filter0_d)">
<path d="M125.135 146.944L149.095 143.521L144.303 94.4587H137.686L125.135 146.944Z" fill="#EAF1F9"/>
</g>
<path d="M174.083 142.38L152.404 138.957L130.726 142.38L142.136 93.3177V84.5322C144.646 84.9886 148.297 85.3309 152.404 85.3309C156.512 85.3309 160.163 84.9886 162.673 84.5322V93.3177L174.083 142.38Z" fill="url(#paint0_linear)"/>
<g filter="url(#filter1_d)">
<path d="M180.929 146.944L156.968 143.521L161.646 94.4587H168.378L180.929 146.944Z" fill="#EAF1F9"/>
</g>
<g filter="url(#filter2_d)">
<path d="M166.096 28.282V83.049C166.096 83.6195 164.841 84.1899 162.673 84.5322C160.163 84.9886 156.512 85.3309 152.404 85.3309C148.297 85.3309 144.646 84.9886 142.135 84.5322C139.968 84.0759 138.713 83.6195 138.713 83.049V28.282C138.713 27.0269 144.874 26 152.404 26C159.935 26 166.096 27.0269 166.096 28.282Z" fill="#EAF1F9"/>
</g>
<path d="M141.929 85.5108L141.943 85.5136L141.957 85.5161C144.536 85.9851 148.248 86.3309 152.404 86.3309C156.554 86.3309 160.262 85.9861 162.841 85.5182C163.961 85.3406 164.907 85.096 165.599 84.7918C165.944 84.6407 166.278 84.4524 166.542 84.2101C166.801 83.9722 167.096 83.5823 167.096 83.049V28.282C167.096 27.6848 166.729 27.2755 166.446 27.0461C166.148 26.8057 165.771 26.6181 165.381 26.465C164.59 26.1549 163.506 25.8951 162.238 25.6839C159.688 25.2588 156.208 25 152.404 25C148.601 25 145.121 25.2588 142.57 25.6839C141.303 25.8951 140.218 26.1549 139.428 26.465C139.037 26.6181 138.66 26.8057 138.363 27.0461C138.079 27.2755 137.713 27.6848 137.713 28.282V83.049C137.713 83.5966 138.022 83.9848 138.291 84.2159C138.559 84.4458 138.894 84.6188 139.228 84.7571C139.903 85.0371 140.835 85.2804 141.929 85.5108Z" fill="url(#paint1_linear)" stroke="#EAF1F9" stroke-width="2"/>
<path d="M152.404 31.0639C156.204 31.0639 159.656 30.8075 162.168 30.3887C163.42 30.1801 164.463 29.9273 165.203 29.6354C165.571 29.4904 165.894 29.3246 166.134 29.1295C166.367 28.9395 166.596 28.6579 166.596 28.282C166.596 27.9061 166.367 27.6244 166.134 27.4344C165.894 27.2393 165.571 27.0735 165.203 26.9285C164.463 26.6366 163.42 26.3839 162.168 26.1752C159.656 25.7564 156.204 25.5 152.404 25.5C148.605 25.5 145.153 25.7564 142.641 26.1752C141.388 26.3839 140.346 26.6366 139.605 26.9285C139.237 27.0735 138.914 27.2393 138.675 27.4344C138.442 27.6244 138.213 27.9061 138.213 28.282C138.213 28.6579 138.442 28.9395 138.675 29.1295C138.914 29.3246 139.237 29.4904 139.605 29.6354C140.346 29.9273 141.388 30.1801 142.641 30.3887C145.153 30.8075 148.605 31.0639 152.404 31.0639Z" stroke="#EAF1F9" stroke-miterlimit="10"/>
<path d="M168.551 95.2584H213" stroke="#6D737A" stroke-width="0.5" stroke-dasharray="4 4"/>
<path d="M180.955 146.944H213" stroke="#6D737A" stroke-width="0.5" stroke-dasharray="4 4"/>
<path d="M202.928 94.9933C202.782 94.8469 202.544 94.8469 202.398 94.9933L200.011 97.3798C199.865 97.5263 199.865 97.7637 200.011 97.9101C200.158 98.0566 200.395 98.0566 200.542 97.9101L202.663 95.7888L204.784 97.9101C204.931 98.0566 205.168 98.0566 205.315 97.9101C205.461 97.7637 205.461 97.5263 205.315 97.3798L202.928 94.9933ZM202.398 147.209C202.544 147.355 202.782 147.355 202.928 147.209L205.315 144.823C205.461 144.676 205.461 144.439 205.315 144.292C205.168 144.146 204.931 144.146 204.784 144.292L202.663 146.414L200.542 144.292C200.395 144.146 200.158 144.146 200.011 144.292C199.865 144.439 199.865 144.676 200.011 144.823L202.398 147.209ZM202.288 95.2585V146.944H203.038V95.2585H202.288Z" fill="#EAF1F9"/>
<path d="M208.382 120.884C208.853 120.884 209.227 121.022 209.502 121.297C209.782 121.568 209.922 121.967 209.922 122.494V124.629H209.25V122.571C209.25 122.212 209.164 121.941 208.991 121.759C208.818 121.577 208.571 121.486 208.249 121.486C207.885 121.486 207.598 121.594 207.388 121.808C207.178 122.018 207.073 122.322 207.073 122.718V124.629H206.401V119.435H207.073V121.444C207.213 121.267 207.395 121.129 207.619 121.031C207.848 120.933 208.102 120.884 208.382 120.884Z" fill="#EAF1F9"/>
<path d="M125.135 146.944V164.517" stroke="#6D737A" stroke-width="0.5" stroke-dasharray="4 4"/>
<path d="M180.955 146.944V164.517" stroke="#6D737A" stroke-width="0.5" stroke-dasharray="4 4"/>
<path d="M124.87 156.499C124.723 156.645 124.723 156.883 124.87 157.029L127.256 159.416C127.403 159.562 127.64 159.562 127.786 159.416C127.933 159.269 127.933 159.032 127.786 158.885L125.665 156.764L127.786 154.643C127.933 154.496 127.933 154.259 127.786 154.112C127.64 153.966 127.403 153.966 127.256 154.112L124.87 156.499ZM181.22 157.029C181.367 156.883 181.367 156.645 181.22 156.499L178.834 154.112C178.687 153.966 178.45 153.966 178.303 154.112C178.157 154.259 178.157 154.496 178.303 154.643L180.425 156.764L178.303 158.885C178.157 159.032 178.157 159.269 178.303 159.416C178.45 159.562 178.687 159.562 178.834 159.416L181.22 157.029ZM125.135 157.139H180.955V156.389H125.135V157.139Z" fill="#EAF1F9"/>
<path d="M151.712 161.448H153.777C154.295 161.448 154.755 161.551 155.156 161.756C155.558 161.962 155.868 162.251 156.087 162.624C156.311 162.993 156.423 163.418 156.423 163.898C156.423 164.379 156.311 164.806 156.087 165.179C155.868 165.548 155.558 165.835 155.156 166.04C154.755 166.246 154.295 166.348 153.777 166.348H151.712V161.448ZM153.735 165.739C154.132 165.739 154.48 165.662 154.778 165.508C155.082 165.354 155.315 165.14 155.478 164.864C155.642 164.584 155.723 164.262 155.723 163.898C155.723 163.534 155.642 163.215 155.478 162.939C155.315 162.659 155.082 162.442 154.778 162.288C154.48 162.134 154.132 162.057 153.735 162.057H152.412V165.739H153.735Z" fill="#EAF1F9"/>
<path d="M125.135 96.2921L125.135 146.944" stroke="#6D737A" stroke-width="0.5" stroke-dasharray="4 4"/>
<path d="M125.4 96.5572C125.546 96.4108 125.546 96.1733 125.4 96.0269L123.014 93.6404C122.867 93.494 122.63 93.494 122.483 93.6404C122.337 93.7868 122.337 94.0243 122.483 94.1707L124.604 96.2921L122.483 98.4134C122.337 98.5598 122.337 98.7973 122.483 98.9437C122.63 99.0902 122.867 99.0902 123.014 98.9437L125.4 96.5572ZM125.135 95.9171L121 95.9171L121 96.6671L125.135 96.6671L125.135 95.9171Z" fill="#EAF1F9"/>
<path d="M143.742 96.2921H125.135" stroke="#EAF1F9" stroke-width="0.75"/>
<path d="M132.373 86.7273V91.9213H131.729V91.3333C131.58 91.5386 131.391 91.6949 131.162 91.8023C130.933 91.9096 130.681 91.9633 130.406 91.9633C130.047 91.9633 129.725 91.8839 129.44 91.7253C129.155 91.5666 128.931 91.3449 128.768 91.0603C128.609 90.7709 128.53 90.4396 128.53 90.0663C128.53 89.6929 128.609 89.3639 128.768 89.0793C128.931 88.7946 129.155 88.5729 129.44 88.4143C129.725 88.2556 130.047 88.1763 130.406 88.1763C130.672 88.1763 130.917 88.2276 131.141 88.3303C131.365 88.4283 131.552 88.5753 131.701 88.7713V86.7273H132.373ZM130.462 91.3753C130.695 91.3753 130.908 91.3216 131.099 91.2143C131.29 91.1023 131.44 90.9483 131.547 90.7523C131.654 90.5516 131.708 90.3229 131.708 90.0663C131.708 89.8096 131.654 89.5833 131.547 89.3873C131.44 89.1866 131.29 89.0326 131.099 88.9253C130.908 88.8179 130.695 88.7643 130.462 88.7643C130.224 88.7643 130.009 88.8179 129.818 88.9253C129.631 89.0326 129.482 89.1866 129.37 89.3873C129.263 89.5833 129.209 89.8096 129.209 90.0663C129.209 90.3229 129.263 90.5516 129.37 90.7523C129.482 90.9483 129.631 91.1023 129.818 91.2143C130.009 91.3216 130.224 91.3753 130.462 91.3753Z" fill="#EAF1F9"/>
<defs>
<filter id="filter0_d" x="95.1348" y="68.4587" width="83.9606" height="112.485" filterUnits="userSpaceOnUse" color-interpolation-filters="sRGB">
<feFlood flood-opacity="0" result="BackgroundImageFix"/>
<feColorMatrix in="SourceAlpha" type="matrix" values="0 0 0 0 0 0 0 0 0 0 0 0 0 0 0 0 0 0 127 0"/>
<feOffset dy="4"/>
<feGaussianBlur stdDeviation="15"/>
<feColorMatrix type="matrix" values="0 0 0 0 0.839216 0 0 0 0 0.882353 0 0 0 0 0.937255 0 0 0 0.5 0"/>
<feBlend mode="normal" in2="BackgroundImageFix" result="effect1_dropShadow"/>
<feBlend mode="normal" in="SourceGraphic" in2="effect1_dropShadow" result="shape"/>
</filter>
<filter id="filter1_d" x="126.968" y="68.4587" width="83.9606" height="112.485" filterUnits="userSpaceOnUse" color-interpolation-filters="sRGB">
<feFlood flood-opacity="0" result="BackgroundImageFix"/>
<feColorMatrix in="SourceAlpha" type="matrix" values="0 0 0 0 0 0 0 0 0 0 0 0 0 0 0 0 0 0 127 0"/>
<feOffset dy="4"/>
<feGaussianBlur stdDeviation="15"/>
<feColorMatrix type="matrix" values="0 0 0 0 0.839216 0 0 0 0 0.882353 0 0 0 0 0.937255 0 0 0 0.5 0"/>
<feBlend mode="normal" in2="BackgroundImageFix" result="effect1_dropShadow"/>
<feBlend mode="normal" in="SourceGraphic" in2="effect1_dropShadow" result="shape"/>
</filter>
<filter id="filter2_d" x="108.713" y="0" width="87.3835" height="119.331" filterUnits="userSpaceOnUse" color-interpolation-filters="sRGB">
<feFlood flood-opacity="0" result="BackgroundImageFix"/>
<feColorMatrix in="SourceAlpha" type="matrix" values="0 0 0 0 0 0 0 0 0 0 0 0 0 0 0 0 0 0 127 0"/>
<feOffset dy="4"/>
<feGaussianBlur stdDeviation="15"/>
<feColorMatrix type="matrix" values="0 0 0 0 0.839216 0 0 0 0 0.882353 0 0 0 0 0.937255 0 0 0 0.5 0"/>
<feBlend mode="normal" in2="BackgroundImageFix" result="effect1_dropShadow"/>
<feBlend mode="normal" in="SourceGraphic" in2="effect1_dropShadow" result="shape"/>
</filter>
<linearGradient id="paint0_linear" x1="138.028" y1="130.4" x2="183.097" y2="130.97" gradientUnits="userSpaceOnUse">
<stop stop-color="#CE0A1F"/>
<stop offset="1" stop-color="#5B0811"/>
</linearGradient>
<linearGradient id="paint1_linear" x1="138.713" y1="69.3481" x2="244.143" y2="-51.6144" gradientUnits="userSpaceOnUse">
<stop stop-color="#222529"/>
<stop offset="0.817708" stop-color="#EAF1F9"/>
</linearGradient>
</defs>
</svg>
