<svg width="18" height="18" viewBox="0 0 18 18" fill="none" xmlns="http://www.w3.org/2000/svg">
<path d="M6.8578 15.5866V13.2864C6.85779 12.7036 7.33175 12.23 7.91883 12.2264H10.0745C10.6642 12.2264 11.1422 12.701 11.1422 13.2864V15.5799C11.1422 16.0855 11.553 16.4963 12.0622 16.5H13.5329C14.2197 16.5017 14.8791 16.2321 15.3654 15.7505C15.8517 15.269 16.125 14.6151 16.125 13.9331V7.39938C16.125 6.84854 15.8791 6.32603 15.4535 5.97263L10.4572 2.0057C9.58388 1.31184 8.33653 1.33426 7.48904 2.05904L2.60026 5.97263C2.15456 6.31562 1.88816 6.83967 1.875 7.39938V13.9265C1.875 15.3478 3.03554 16.5 4.46713 16.5H5.90422C6.14938 16.5018 6.38512 16.4063 6.5591 16.2348C6.73309 16.0633 6.83094 15.83 6.83094 15.5866H6.8578Z" fill="#8D4D00"/>
</svg>
