<svg width="17" height="17" viewBox="0 0 17 17" fill="none" xmlns="http://www.w3.org/2000/svg">
<path d="M6.67589 14.1283V12.1605C6.67588 11.66 7.08392 11.2533 7.58949 11.2499H9.44139C9.94937 11.2499 10.3612 11.6576 10.3612 12.1605V12.1605V14.1344C10.361 14.5594 10.7037 14.9067 11.1328 14.9166H12.3674C13.5981 14.9166 14.5958 13.9289 14.5958 12.7105V12.7105V7.11259C14.5893 6.63326 14.3619 6.18315 13.9785 5.89034L9.75621 2.52305C9.01651 1.93673 7.96499 1.93673 7.22528 2.52305L3.02147 5.89645C2.63662 6.18807 2.40891 6.63893 2.40417 7.1187V12.7105C2.40417 13.9289 3.40189 14.9166 4.63263 14.9166H5.86723C6.30702 14.9166 6.66354 14.5637 6.66354 14.1283V14.1283" stroke="white" stroke-opacity="0.35" stroke-width="1.5" stroke-linecap="round" stroke-linejoin="round"/>
</svg>
