<svg width="357" height="291" viewBox="0 0 357 291" fill="none" xmlns="http://www.w3.org/2000/svg">
<g filter="url(#filter0_di)">
<path d="M158.936 138.184C158.936 127.816 161.24 119.272 165.848 112.552C170.648 105.64 177.56 98.152 186.584 90.088C193.496 83.944 198.584 78.664 201.848 74.248C205.304 69.64 207.032 64.456 207.032 58.696C207.032 50.632 203.768 44.104 197.24 39.112C190.712 34.12 181.976 31.624 171.032 31.624C150.296 31.624 134.648 39.016 124.088 53.8L96.152 35.656C104.408 24.328 115.064 15.688 128.12 9.73599C141.176 3.59199 156.536 0.519989 174.2 0.519989C195.704 0.519989 212.792 5.22399 225.464 14.632C238.328 23.848 244.76 36.616 244.76 52.936C244.76 60.808 243.416 67.72 240.728 73.672C238.232 79.624 235.16 84.712 231.512 88.936C227.864 92.968 223.064 97.672 217.112 103.048C209.816 109.576 204.344 115.336 200.696 120.328C197.24 125.32 195.512 131.272 195.512 138.184H158.936ZM177.368 207.016C170.648 207.016 165.08 204.904 160.664 200.68C156.44 196.264 154.328 190.888 154.328 184.552C154.328 178.216 156.44 172.936 160.664 168.712C165.08 164.488 170.648 162.376 177.368 162.376C183.896 162.376 189.272 164.488 193.496 168.712C197.912 172.936 200.12 178.216 200.12 184.552C200.12 190.888 197.912 196.264 193.496 200.68C189.272 204.904 183.896 207.016 177.368 207.016Z" fill="white"/>
</g>
<path d="M20.064 281.48C16.672 281.48 13.6 280.744 10.848 279.272C8.128 277.768 5.984 275.704 4.416 273.08C2.88 270.456 2.112 267.496 2.112 264.2C2.112 260.904 2.896 257.944 4.464 255.32C6.032 252.696 8.176 250.648 10.896 249.176C13.648 247.672 16.72 246.92 20.112 246.92C22.864 246.92 25.376 247.4 27.648 248.36C29.92 249.32 31.84 250.712 33.408 252.536L29.376 256.328C26.944 253.704 23.952 252.392 20.4 252.392C18.096 252.392 16.032 252.904 14.208 253.928C12.384 254.92 10.96 256.312 9.936 258.104C8.912 259.896 8.4 261.928 8.4 264.2C8.4 266.472 8.912 268.504 9.936 270.296C10.96 272.088 12.384 273.496 14.208 274.52C16.032 275.512 18.096 276.008 20.4 276.008C23.952 276.008 26.944 274.68 29.376 272.024L33.408 275.864C31.84 277.688 29.904 279.08 27.6 280.04C25.328 281 22.816 281.48 20.064 281.48ZM48.4335 281.336C45.8415 281.336 43.5055 280.776 41.4255 279.656C39.3455 278.536 37.7135 276.984 36.5295 275C35.3775 272.984 34.8015 270.712 34.8015 268.184C34.8015 265.656 35.3775 263.4 36.5295 261.416C37.7135 259.432 39.3455 257.88 41.4255 256.76C43.5055 255.64 45.8415 255.08 48.4335 255.08C51.0575 255.08 53.4095 255.64 55.4895 256.76C57.5695 257.88 59.1855 259.432 60.3375 261.416C61.5215 263.4 62.1135 265.656 62.1135 268.184C62.1135 270.712 61.5215 272.984 60.3375 275C59.1855 276.984 57.5695 278.536 55.4895 279.656C53.4095 280.776 51.0575 281.336 48.4335 281.336ZM48.4335 276.2C50.6415 276.2 52.4655 275.464 53.9055 273.992C55.3455 272.52 56.0655 270.584 56.0655 268.184C56.0655 265.784 55.3455 263.848 53.9055 262.376C52.4655 260.904 50.6415 260.168 48.4335 260.168C46.2255 260.168 44.4015 260.904 42.9615 262.376C41.5535 263.848 40.8495 265.784 40.8495 268.184C40.8495 270.584 41.5535 272.52 42.9615 273.992C44.4015 275.464 46.2255 276.2 48.4335 276.2ZM99.243 255.08C102.475 255.08 105.035 256.024 106.923 257.912C108.811 259.768 109.755 262.568 109.755 266.312V281H103.755V267.08C103.755 264.84 103.259 263.16 102.267 262.04C101.275 260.888 99.851 260.312 97.995 260.312C95.979 260.312 94.363 260.984 93.147 262.328C91.931 263.64 91.323 265.528 91.323 267.992V281H85.323V267.08C85.323 264.84 84.827 263.16 83.835 262.04C82.843 260.888 81.419 260.312 79.563 260.312C77.515 260.312 75.883 260.968 74.667 262.28C73.483 263.592 72.891 265.496 72.891 267.992V281H66.891V255.368H72.603V258.632C73.563 257.48 74.763 256.6 76.203 255.992C77.643 255.384 79.243 255.08 81.003 255.08C82.923 255.08 84.619 255.448 86.091 256.184C87.595 256.888 88.779 257.944 89.643 259.352C90.699 258.008 92.059 256.968 93.723 256.232C95.387 255.464 97.227 255.08 99.243 255.08ZM116.462 255.368H122.462V281H116.462V255.368ZM119.486 251.144C118.398 251.144 117.486 250.808 116.75 250.136C116.014 249.432 115.646 248.568 115.646 247.544C115.646 246.52 116.014 245.672 116.75 245C117.486 244.296 118.398 243.944 119.486 243.944C120.574 243.944 121.486 244.28 122.222 244.952C122.958 245.592 123.326 246.408 123.326 247.4C123.326 248.456 122.958 249.352 122.222 250.088C121.518 250.792 120.606 251.144 119.486 251.144ZM143.921 255.08C147.153 255.08 149.745 256.024 151.697 257.912C153.649 259.8 154.625 262.6 154.625 266.312V281H148.625V267.08C148.625 264.84 148.097 263.16 147.041 262.04C145.985 260.888 144.481 260.312 142.529 260.312C140.321 260.312 138.577 260.984 137.297 262.328C136.017 263.64 135.377 265.544 135.377 268.04V281H129.377V255.368H135.089V258.68C136.081 257.496 137.329 256.6 138.833 255.992C140.337 255.384 142.033 255.08 143.921 255.08ZM186.951 255.368V277.112C186.951 286.136 182.343 290.648 173.127 290.648C170.663 290.648 168.327 290.328 166.119 289.688C163.911 289.08 162.087 288.184 160.647 287L163.335 282.488C164.455 283.416 165.863 284.152 167.559 284.696C169.287 285.272 171.031 285.56 172.791 285.56C175.607 285.56 177.671 284.92 178.983 283.64C180.295 282.36 180.951 280.408 180.951 277.784V276.44C179.927 277.56 178.679 278.408 177.207 278.984C175.735 279.56 174.119 279.848 172.359 279.848C169.927 279.848 167.719 279.336 165.735 278.312C163.783 277.256 162.231 275.784 161.079 273.896C159.959 272.008 159.399 269.848 159.399 267.416C159.399 264.984 159.959 262.84 161.079 260.984C162.231 259.096 163.783 257.64 165.735 256.616C167.719 255.592 169.927 255.08 172.359 255.08C174.215 255.08 175.895 255.384 177.399 255.992C178.935 256.6 180.215 257.528 181.239 258.776V255.368H186.951ZM173.271 274.76C175.543 274.76 177.399 274.088 178.839 272.744C180.311 271.368 181.047 269.592 181.047 267.416C181.047 265.272 180.311 263.528 178.839 262.184C177.399 260.84 175.543 260.168 173.271 260.168C170.967 260.168 169.079 260.84 167.607 262.184C166.167 263.528 165.447 265.272 165.447 267.416C165.447 269.592 166.167 271.368 167.607 272.744C169.079 274.088 170.967 274.76 173.271 274.76ZM214.105 281.336C212.025 281.336 209.993 281.064 208.009 280.52C206.025 279.976 204.441 279.288 203.257 278.456L205.561 273.896C206.713 274.664 208.089 275.288 209.689 275.768C211.321 276.216 212.921 276.44 214.489 276.44C218.073 276.44 219.865 275.496 219.865 273.608C219.865 272.712 219.401 272.088 218.473 271.736C217.577 271.384 216.121 271.048 214.105 270.728C211.993 270.408 210.265 270.04 208.921 269.624C207.609 269.208 206.457 268.488 205.465 267.464C204.505 266.408 204.025 264.952 204.025 263.096C204.025 260.664 205.033 258.728 207.049 257.288C209.097 255.816 211.849 255.08 215.305 255.08C217.065 255.08 218.825 255.288 220.585 255.704C222.345 256.088 223.785 256.616 224.905 257.288L222.601 261.848C220.425 260.568 217.977 259.928 215.257 259.928C213.497 259.928 212.153 260.2 211.225 260.744C210.329 261.256 209.881 261.944 209.881 262.808C209.881 263.768 210.361 264.456 211.321 264.872C212.313 265.256 213.833 265.624 215.881 265.976C217.929 266.296 219.609 266.664 220.921 267.08C222.233 267.496 223.353 268.2 224.281 269.192C225.241 270.184 225.721 271.592 225.721 273.416C225.721 275.816 224.681 277.736 222.601 279.176C220.521 280.616 217.689 281.336 214.105 281.336ZM241.448 281.336C238.856 281.336 236.52 280.776 234.44 279.656C232.36 278.536 230.728 276.984 229.544 275C228.392 272.984 227.816 270.712 227.816 268.184C227.816 265.656 228.392 263.4 229.544 261.416C230.728 259.432 232.36 257.88 234.44 256.76C236.52 255.64 238.856 255.08 241.448 255.08C244.072 255.08 246.424 255.64 248.504 256.76C250.584 257.88 252.2 259.432 253.352 261.416C254.536 263.4 255.128 265.656 255.128 268.184C255.128 270.712 254.536 272.984 253.352 275C252.2 276.984 250.584 278.536 248.504 279.656C246.424 280.776 244.072 281.336 241.448 281.336ZM241.448 276.2C243.656 276.2 245.48 275.464 246.92 273.992C248.36 272.52 249.08 270.584 249.08 268.184C249.08 265.784 248.36 263.848 246.92 262.376C245.48 260.904 243.656 260.168 241.448 260.168C239.24 260.168 237.416 260.904 235.976 262.376C234.568 263.848 233.864 265.784 233.864 268.184C233.864 270.584 234.568 272.52 235.976 273.992C237.416 275.464 239.24 276.2 241.448 276.2ZM271.425 281.336C268.833 281.336 266.497 280.776 264.417 279.656C262.337 278.536 260.705 276.984 259.521 275C258.369 272.984 257.793 270.712 257.793 268.184C257.793 265.656 258.369 263.4 259.521 261.416C260.705 259.432 262.337 257.88 264.417 256.76C266.497 255.64 268.833 255.08 271.425 255.08C274.049 255.08 276.401 255.64 278.481 256.76C280.561 257.88 282.177 259.432 283.329 261.416C284.513 263.4 285.105 265.656 285.105 268.184C285.105 270.712 284.513 272.984 283.329 275C282.177 276.984 280.561 278.536 278.481 279.656C276.401 280.776 274.049 281.336 271.425 281.336ZM271.425 276.2C273.633 276.2 275.457 275.464 276.897 273.992C278.337 272.52 279.057 270.584 279.057 268.184C279.057 265.784 278.337 263.848 276.897 262.376C275.457 260.904 273.633 260.168 271.425 260.168C269.217 260.168 267.393 260.904 265.953 262.376C264.545 263.848 263.841 265.784 263.841 268.184C263.841 270.584 264.545 272.52 265.953 273.992C267.393 275.464 269.217 276.2 271.425 276.2ZM304.427 255.08C307.659 255.08 310.251 256.024 312.203 257.912C314.155 259.8 315.131 262.6 315.131 266.312V281H309.131V267.08C309.131 264.84 308.603 263.16 307.547 262.04C306.491 260.888 304.987 260.312 303.035 260.312C300.827 260.312 299.083 260.984 297.803 262.328C296.523 263.64 295.883 265.544 295.883 268.04V281H289.883V255.368H295.595V258.68C296.587 257.496 297.835 256.6 299.339 255.992C300.843 255.384 302.539 255.08 304.427 255.08ZM321.014 247.4H328.118L326.918 269.864H322.166L321.014 247.4ZM324.566 281.336C323.446 281.336 322.518 280.984 321.782 280.28C321.046 279.544 320.678 278.648 320.678 277.592C320.678 276.536 321.046 275.656 321.782 274.952C322.518 274.248 323.446 273.896 324.566 273.896C325.654 273.896 326.55 274.248 327.254 274.952C327.99 275.656 328.358 276.536 328.358 277.592C328.358 278.648 327.99 279.544 327.254 280.28C326.55 280.984 325.654 281.336 324.566 281.336ZM333.414 247.4H340.518L339.318 269.864H334.566L333.414 247.4ZM336.966 281.336C335.846 281.336 334.918 280.984 334.182 280.28C333.446 279.544 333.078 278.648 333.078 277.592C333.078 276.536 333.446 275.656 334.182 274.952C334.918 274.248 335.846 273.896 336.966 273.896C338.054 273.896 338.95 274.248 339.654 274.952C340.39 275.656 340.758 276.536 340.758 277.592C340.758 278.648 340.39 279.544 339.654 280.28C338.95 280.984 338.054 281.336 336.966 281.336ZM345.813 247.4H352.917L351.717 269.864H346.965L345.813 247.4ZM349.365 281.336C348.245 281.336 347.317 280.984 346.581 280.28C345.845 279.544 345.477 278.648 345.477 277.592C345.477 276.536 345.845 275.656 346.581 274.952C347.317 274.248 348.245 273.896 349.365 273.896C350.453 273.896 351.349 274.248 352.053 274.952C352.789 275.656 353.157 276.536 353.157 277.592C353.157 278.648 352.789 279.544 352.053 280.28C351.349 280.984 350.453 281.336 349.365 281.336Z" fill="white"/>
<defs>
<filter id="filter0_di" x="92.1521" y="0.52002" width="156.608" height="214.496" filterUnits="userSpaceOnUse" color-interpolation-filters="sRGB">
<feFlood flood-opacity="0" result="BackgroundImageFix"/>
<feColorMatrix in="SourceAlpha" type="matrix" values="0 0 0 0 0 0 0 0 0 0 0 0 0 0 0 0 0 0 127 0" result="hardAlpha"/>
<feOffset dy="4"/>
<feGaussianBlur stdDeviation="2"/>
<feComposite in2="hardAlpha" operator="out"/>
<feColorMatrix type="matrix" values="0 0 0 0 0 0 0 0 0 0 0 0 0 0 0 0 0 0 0.25 0"/>
<feBlend mode="normal" in2="BackgroundImageFix" result="effect1_dropShadow"/>
<feBlend mode="normal" in="SourceGraphic" in2="effect1_dropShadow" result="shape"/>
<feColorMatrix in="SourceAlpha" type="matrix" values="0 0 0 0 0 0 0 0 0 0 0 0 0 0 0 0 0 0 127 0" result="hardAlpha"/>
<feOffset dy="4"/>
<feGaussianBlur stdDeviation="2"/>
<feComposite in2="hardAlpha" operator="arithmetic" k2="-1" k3="1"/>
<feColorMatrix type="matrix" values="0 0 0 0 0 0 0 0 0 0 0 0 0 0 0 0 0 0 0.25 0"/>
<feBlend mode="normal" in2="shape" result="effect2_innerShadow"/>
</filter>
</defs>
</svg>
