<svg width="311" height="189" viewBox="0 0 311 189" fill="none" xmlns="http://www.w3.org/2000/svg">
<path d="M121.5 144.3H115.5L114.4 142.9L111.8 139.7L117.8 139.6L121.5 144.3Z" fill="url(#paint0_linear)"/>
<path d="M138.4 137.2H132.4L132 137L129.2 135.7H132.3C132.8 135.4 133.2 135.2 133.6 134.9L138.4 137.2Z" fill="url(#paint1_linear)"/>
<path d="M88.3 48.9L94.6 48.8L93.4 49.8L88.3 48.9Z" fill="#2B3E5E"/>
<path d="M110.7 40.9H104.7C104.2 40.8 103.8 40.6 103.3 40.5H109.3C109.8 40.7 110.2 40.8 110.7 40.9Z" fill="#2B3E5E"/>
<path d="M130.7 35.8L125.7 41C125.2 40.9 124.8 40.7 124.3 40.6H120.1L122.9 37.7L125.9 34.5L130.7 35.8Z" fill="url(#paint2_linear)"/>
<path d="M95 38.6L94.6 48.7L88.5 48.8L88.6 48.7L89 38.6H95Z" fill="url(#paint3_linear)"/>
<path d="M82.8 65.6L77.8 67.4H73.3V66.8L76.7 65.6H76.8H82.8Z" fill="url(#paint4_linear)"/>
<path d="M78.1 85.5L74.1 89.8H69.4L69.1 88.7L70.4 87.3L72.1 85.5H78.1Z" fill="url(#paint5_linear)"/>
<path d="M101.9 135.8H95.9C95.5 135.6 95 135.3 94.6 135H100.6C101 135.3 101.4 135.5 101.9 135.8Z" fill="#2B3E5E"/>
<path d="M103.8 142H97.8L96.5 137.7L95.9 135.8H101.9L103.8 142Z" fill="url(#paint6_linear)"/>
<path d="M113.1 31.6L109.5 40.6H103.5L104.5 38.1L107.1 31.6H113.1Z" fill="url(#paint7_linear)"/>
<path d="M155.8 85.2C155.8 84.6 155.7 84 155.6 83.4L158.8 78.2L165.1 80.5L158.9 67L151.1 65.4C150.9 64.9 150.6 64.3 150.4 63.8L151.7 57.3L158.2 56.1L148.1 47.1L140.5 49.7C140.1 49.3 139.7 49 139.3 48.6L138.4 42L144 37.5L131.9 34.5L125.7 40.9C125.2 40.8 124.8 40.6 124.3 40.5L121.4 35L125 28L113 31.6L109.4 40.6C108.9 40.7 108.5 40.9 108 41L103.6 37.4L104.7 29.1L95 38.6L94.6 48.7C94.2 49.1 93.8 49.4 93.5 49.8L88.3 48.8L86.7 40.7L80.8 54.5L83.6 64C83.3 64.5 83.1 65.1 82.9 65.6L77.9 67.4L73.8 60.8L72.7 76.5L78.3 83.7C78.2 84.3 78.2 84.9 78.2 85.5L74.2 89.8L68.4 85.9L72.4 100.8L79.8 104.4C80 105 80.1 105.6 80.3 106.2L78 112.2L71.4 111.7L79.8 123.2L87.7 122.7C88 123.2 88.3 123.6 88.6 124L88.4 130.7L82.2 133.6L93.5 139.7L100.6 135.1C101 135.4 101.5 135.6 101.9 135.9L103.8 142.1L99.1 148L111.4 147.7L116.4 139.8C116.6 139.8 116.8 139.8 117 139.8C117.3 139.8 117.5 139.8 117.8 139.8L121.5 144.5L119.1 152.3L130.2 145.6L132.2 135.8C132.7 135.5 133.1 135.3 133.5 135L138.4 137.3L138.7 145.7L146.8 133.8L145.6 123.8C145.9 123.3 146.2 122.9 146.6 122.4L151.8 122L154.7 129.5L158.3 114.5L154 106C154.2 105.4 154.3 104.8 154.5 104.2L159.1 101.1L164.2 106.5L162.7 90.9L155.8 85.2ZM117 107.7C109.2 107.7 103 99.6 103 89.7C103 79.8 109.3 71.7 117 71.7C124.8 71.7 131 79.8 131 89.7C131 99.6 124.8 107.7 117 107.7Z" fill="url(#paint8_linear)"/>
<path d="M131.1 89.7C131.1 99.6 124.8 107.7 117.1 107.7C116.1 107.7 115.1 107.6 114.1 107.3C120.4 105.5 125.1 98.3 125.1 89.7C125.1 81.1 120.4 73.9 114.1 72.1C115.1 71.8 116.1 71.7 117.1 71.7C124.8 71.7 131.1 79.7 131.1 89.7Z" fill="url(#paint9_linear)"/>
<path d="M104.8 29.1L97.9 35.8L95 38.6H89L98.8 29.1H104.8Z" fill="url(#paint10_linear)"/>
<path d="M83.5 64H77.5L74.7 54.5H80.7L83.5 64Z" fill="url(#paint11_linear)"/>
<path d="M79.7 104.4H73.7L66.3 100.7H72.3L79.7 104.4Z" fill="url(#paint12_linear)"/>
<path d="M80.2 106.1H74.2C74 105.5 73.9 104.9 73.7 104.3H79.7C79.8 105 80 105.5 80.2 106.1Z" fill="url(#paint13_linear)"/>
<path d="M80.2 106.1L77.8 112.1L72 111.6L74.2 106.1H80.2Z" fill="url(#paint14_linear)"/>
<path d="M87.6 122.5L81.9 122.9L79.7 123.1H73.7L79.4 122.7L81.6 122.5H87.6Z" fill="url(#paint15_linear)"/>
<path d="M79.4 122.7L73.7 123.1L65.3 111.6L71.7 112.1L79.4 122.7Z" fill="url(#paint16_linear)"/>
<path d="M88.6 123.9H82.6C82.4 123.6 82.1 123.3 81.9 122.9L87.6 122.5C87.9 123 88.2 123.4 88.6 123.9Z" fill="url(#paint17_linear)"/>
<path d="M88.6 123.9L88.3 130.6H82.3L82.6 123.9H88.6Z" fill="url(#paint18_linear)"/>
<path d="M88.3 130.6L82.2 133.5H76.2L82.3 130.6H88.3Z" fill="url(#paint19_linear)"/>
<path d="M93.5 139.6H87.5L76.2 133.5H82.2L90.2 137.8L93.5 139.6Z" fill="url(#paint20_linear)"/>
<path d="M103.8 142L99.2 147.7L93.1 147.8L97.8 142H103.8Z" fill="url(#paint21_linear)"/>
<path d="M72.3 100.7H66.3L62.3 85.8H68.3L69.1 88.7L69.4 89.8L72.3 100.7Z" fill="url(#paint22_linear)"/>
<path d="M78.3 83.7C78.2 84.3 78.2 84.9 78.2 85.5H72.2C72.2 84.9 72.3 84.3 72.3 83.7H78.3Z" fill="url(#paint23_linear)"/>
<path d="M78.3 83.7H72.3L66.7 76.5H72.7L78.3 83.7Z" fill="url(#paint24_linear)"/>
<path d="M73.7 60.8L73.3 66.8V67.4L72.7 76.5H66.7L67.7 60.8H73.7Z" fill="url(#paint25_linear)"/>
<path d="M83.5 64C83.2 64.5 83 65.1 82.8 65.6H76.8C77 65.1 77.3 64.5 77.5 64H83.5Z" fill="url(#paint26_linear)"/>
<path d="M121.5 144.3L120.5 147.7L119.1 152.1H113.1L115.5 144.3H121.5Z" fill="url(#paint27_linear)"/>
<path d="M125 28L117.9 30.1L113.1 31.6H107.1L119 28H125Z" fill="url(#paint28_linear)"/>
<path d="M143.9 37.5H137.9L130.7 35.8L125.9 34.6H131.9L143.9 37.5Z" fill="url(#paint29_linear)"/>
<path d="M165.2 80.4H159.2L157.8 79.9L158.5 78.9L158.9 78.2L165.2 80.4Z" fill="url(#paint30_linear)"/>
<path d="M86.6 40.7L83.1 49L80.7 54.5H74.7L80.6 40.7H86.6Z" fill="url(#paint31_linear)"/>
<path d="M77.8 112.1H71.8H71.7L65.3 111.6H71.3H72L77.8 112.1Z" fill="url(#paint32_linear)"/>
<path d="M138.7 145.6H132.7L132.5 137.2H138.5L138.7 145.6Z" fill="url(#paint33_linear)"/>
<path d="M154.6 129.5H148.6L146.1 123C146.2 122.8 146.4 122.6 146.5 122.4L150.4 122.1L151.7 122L154.6 129.5Z" fill="url(#paint34_linear)"/>
<path d="M164 106.4H158L155.3 103.5L157.5 102L158.9 101L164 106.4Z" fill="url(#paint35_linear)"/>
<path d="M148.1 47.1L143.8 48.6L140.5 49.7C140.1 49.3 139.7 49 139.3 48.6L139.2 48L142.1 47H148.1V47.1Z" fill="url(#paint36_linear)"/>
<g filter="url(#filter0_d)">
<path d="M125.4 28L121.8 35L123.2 37.7L126.2 34.5H132.2L144.2 37.5L138.7 42L139.5 48L142.4 47H148.4L158.5 56L152 57.2L150.7 63.7C151 64.2 151.2 64.8 151.4 65.3L159.2 66.9L165.5 80.4H159.5L158.1 79.9L156 83.4C156.1 84 156.1 84.6 156.2 85.2L162.9 90.7L164.4 106.3H158.4L155.7 103.4L154.8 104C154.7 104.6 154.5 105.2 154.3 105.8L158.6 114.3L155 129.3H149L146.5 122.8C146.3 123.1 146.1 123.3 145.9 123.6L147.1 133.6L139 145.6H133L132.7 137.2L132.2 137L130.4 145.5L119.3 152.2H113.3L115.7 144.4L114.5 142.9L111.5 147.6L99.2 147.9L99.3 147.8L93.2 147.9L97.9 142L96.6 137.7L93.6 139.6H87.6L76.3 133.5L82.5 130.6L82.7 123.9C82.5 123.6 82.2 123.3 82 122.9H81.7L80 123.1H74L65.6 111.6H71.6L72.3 111.7L74.4 106.2C74.2 105.6 74.1 105 73.9 104.4L66.5 100.8L62.5 85.9H68.5L70.6 87.3L72.3 85.5C72.3 84.9 72.4 84.3 72.4 83.7L67 76.5L68 60.8H74L77 65.6H77.1C77.3 65.1 77.6 64.5 77.8 64L75 54.5L80.9 40.7H86.9L88.5 48.8H88.7L88.8 48.7L89.2 38.6L99 29.1H105L104 37.4L104.8 38.1L107.4 31.6L119.4 28H125.4ZM128.6 26H125.3H119.3H119L118.7 26.1L107 29.6V29.4L107.3 27.1H105H99H98.2L97.6 27.7L87.8 37.2L87.2 37.8V38.6V38.8H86.9H80.9H79.6L79.1 40L73.2 53.8L72.9 54.5L73.1 55.2L74.2 58.9H74H68H66.2L66 60.7L65 76.3L64.9 77.1L65.4 77.7L70.5 84.3C70.5 84.4 70.5 84.5 70.5 84.7L69.8 84.2L69.3 83.9H68.6H62.6H60L60.7 86.4L64.7 101.3L64.9 102.2L65.7 102.6L72.3 105.8C72.3 105.9 72.3 106 72.4 106.1L71 109.6H65.6H61.7L64 112.7L72.4 124.2L73 125H74H80H80.1H80.2H80.9L80.8 129.3L75.8 131.7L72.2 133.4L75.7 135.3L87 141.4L87.4 141.6H87.9H93.9H94.5L95 141.3L95.8 140.8L96 141.5L92 146.6L89.3 149.9L93.6 149.8H95.5L95.4 149.9L99.6 149.8L111.9 149.5H112.3L111.7 151.5L110.9 154.1H113.6H119.6H121.6V153.2L131.3 147.4V147.6H133H139H140.1L140.7 146.7L148.8 134.8L149.2 134.2L149.1 133.5L148.8 131.5H148.9H154.9H156.9V129.7L160.4 114.9L160.6 114.2L160.3 113.5L157.7 108.4H158.3H164.3H166.5L166.3 106.2L164.8 90.6L164.7 89.8L164.1 89.3L158.1 84.3C158.1 84.2 158.1 84.1 158.1 84L159 82.5L159.2 82.6H159.6H165.6H168.7L167.4 79.7L161 66.1L160.6 65.2L159.6 65L152.8 63.6V63.5L153.7 59L158.9 58L162.9 57.3L159.9 54.6L149.8 45.6L149.2 45.1H148.4H142.4H142L141.7 45.2L141.1 45.4L140.8 42.9L145.5 39.1L148.6 36.6L144.7 35.6L132.7 32.6L132.5 32.5H132.3H126.3H125.4L125.2 32.7L127.2 28.9L128.6 26Z" fill="#EAF1F9"/>
</g>
<path d="M117 109C125.504 109 132 100.245 132 90C132 79.755 125.504 71 117 71C108.496 71 102 79.755 102 90C102 100.245 108.496 109 117 109Z" stroke="#EAF1F9" stroke-width="2" stroke-miterlimit="10"/>
<path d="M230.391 79.5674L249.919 82.4204L240.45 136.342L222.548 135.497L230.391 79.5674ZM222.284 136.486L240.088 137.326L234.918 148H216.778L222.284 136.486ZM221.492 135.825L215.705 147.924L204.535 138.848L211.541 89.8034L229.331 79.9243L221.492 135.825Z" fill="url(#paint37_linear)" stroke="#EAF1F9"/>
<path d="M211.622 89.3525L211.313 89.533L211.259 89.8865L203.759 138.887L203.692 139.32L204.038 139.591L215.538 148.591L215.741 148.75H216H235H235.485L235.684 148.307L240.684 137.169L240.722 137.084L240.739 136.992L250.239 83.1303L250.368 82.3961L249.635 82.2622L230.464 78.7622L230.397 78.75H230.329H229.966H229.763L229.587 78.8525L211.622 89.3525Z" stroke="#EAF1F9" stroke-width="1.5"/>
<path d="M230 79.5V28" stroke="#6D737A" stroke-width="0.5" stroke-dasharray="4 4"/>
<path d="M250 82V28" stroke="#6D737A" stroke-width="0.5" stroke-dasharray="4 4"/>
<path d="M229.735 36.7348C229.588 36.8813 229.588 37.1187 229.735 37.2652L232.121 39.6517C232.268 39.7981 232.505 39.7981 232.652 39.6517C232.798 39.5052 232.798 39.2678 232.652 39.1213L230.53 37L232.652 34.8787C232.798 34.7322 232.798 34.4948 232.652 34.3483C232.505 34.2019 232.268 34.2019 232.121 34.3483L229.735 36.7348ZM250.265 37.2652C250.412 37.1187 250.412 36.8813 250.265 36.7348L247.879 34.3483C247.732 34.2019 247.495 34.2019 247.348 34.3483C247.202 34.4948 247.202 34.7322 247.348 34.8787L249.47 37L247.348 39.1213C247.202 39.2678 247.202 39.5052 247.348 39.6517C247.495 39.7981 247.732 39.7981 247.879 39.6517L250.265 37.2652ZM230 37.375H250V36.625H230V37.375Z" fill="#EAF1F9"/>
<defs>
<filter id="filter0_d" x="30" y="0" width="168.7" height="188.1" filterUnits="userSpaceOnUse" color-interpolation-filters="sRGB">
<feFlood flood-opacity="0" result="BackgroundImageFix"/>
<feColorMatrix in="SourceAlpha" type="matrix" values="0 0 0 0 0 0 0 0 0 0 0 0 0 0 0 0 0 0 127 0"/>
<feOffset dy="4"/>
<feGaussianBlur stdDeviation="15"/>
<feColorMatrix type="matrix" values="0 0 0 0 0.839216 0 0 0 0 0.882353 0 0 0 0 0.937255 0 0 0 1 0"/>
<feBlend mode="normal" in2="BackgroundImageFix" result="effect1_dropShadow"/>
<feBlend mode="normal" in="SourceGraphic" in2="effect1_dropShadow" result="shape"/>
</filter>
<linearGradient id="paint0_linear" x1="110.196" y1="142.778" x2="116.15" y2="126.438" gradientUnits="userSpaceOnUse">
<stop stop-color="#222529"/>
<stop offset="0.817708" stop-color="#EAF1F9"/>
</linearGradient>
<linearGradient id="paint1_linear" x1="127.679" y1="136.455" x2="129.323" y2="127.707" gradientUnits="userSpaceOnUse">
<stop stop-color="#222529"/>
<stop offset="0.817708" stop-color="#EAF1F9"/>
</linearGradient>
<linearGradient id="paint2_linear" x1="118.347" y1="38.8956" x2="128.081" y2="17.7856" gradientUnits="userSpaceOnUse">
<stop stop-color="#222529"/>
<stop offset="0.817708" stop-color="#EAF1F9"/>
</linearGradient>
<linearGradient id="paint3_linear" x1="87.4252" y1="45.4977" x2="107.238" y2="28.7071" gradientUnits="userSpaceOnUse">
<stop stop-color="#222529"/>
<stop offset="0.817708" stop-color="#EAF1F9"/>
</linearGradient>
<linearGradient id="paint4_linear" x1="71.7291" y1="66.8172" x2="72.719" y2="59.8695" gradientUnits="userSpaceOnUse">
<stop stop-color="#222529"/>
<stop offset="0.817708" stop-color="#EAF1F9"/>
</linearGradient>
<linearGradient id="paint5_linear" x1="67.6118" y1="88.4079" x2="73.0003" y2="73.4095" gradientUnits="userSpaceOnUse">
<stop stop-color="#222529"/>
<stop offset="0.817708" stop-color="#EAF1F9"/>
</linearGradient>
<linearGradient id="paint6_linear" x1="94.5937" y1="139.993" x2="105.281" y2="121.883" gradientUnits="userSpaceOnUse">
<stop stop-color="#222529"/>
<stop offset="0.817708" stop-color="#EAF1F9"/>
</linearGradient>
<linearGradient id="paint7_linear" x1="101.913" y1="37.6862" x2="118.604" y2="14.0092" gradientUnits="userSpaceOnUse">
<stop stop-color="#222529"/>
<stop offset="0.817708" stop-color="#EAF1F9"/>
</linearGradient>
<linearGradient id="paint8_linear" x1="68.4" y1="118.573" x2="269.312" y2="-206.376" gradientUnits="userSpaceOnUse">
<stop stop-color="#222529"/>
<stop offset="0.817708" stop-color="#EAF1F9"/>
</linearGradient>
<linearGradient id="paint9_linear" x1="111.289" y1="96.0448" x2="175.141" y2="55.9466" gradientUnits="userSpaceOnUse">
<stop stop-color="#222529"/>
<stop offset="0.817708" stop-color="#EAF1F9"/>
</linearGradient>
<linearGradient id="paint10_linear" x1="95.1763" y1="42.4722" x2="106.082" y2="28.5747" gradientUnits="userSpaceOnUse">
<stop stop-color="#24272B"/>
<stop offset="1" stop-color="#EAF1F9"/>
</linearGradient>
<linearGradient id="paint11_linear" x1="73.2448" y1="60.9243" x2="91.5519" y2="38.3725" gradientUnits="userSpaceOnUse">
<stop stop-color="#222529"/>
<stop offset="0.817708" stop-color="#EAF1F9"/>
</linearGradient>
<linearGradient id="paint12_linear" x1="64.0842" y1="103.202" x2="66.9846" y2="89.2329" gradientUnits="userSpaceOnUse">
<stop stop-color="#222529"/>
<stop offset="0.817708" stop-color="#EAF1F9"/>
</linearGradient>
<linearGradient id="paint13_linear" x1="72.6252" y1="105.517" x2="74.04" y2="98.7231" gradientUnits="userSpaceOnUse">
<stop stop-color="#222529"/>
<stop offset="0.817708" stop-color="#EAF1F9"/>
</linearGradient>
<linearGradient id="paint14_linear" x1="70.644" y1="110.157" x2="80.624" y2="92.0193" gradientUnits="userSpaceOnUse">
<stop stop-color="#222529"/>
<stop offset="0.817708" stop-color="#EAF1F9"/>
</linearGradient>
<linearGradient id="paint15_linear" x1="71.4015" y1="122.906" x2="71.4781" y2="120.545" gradientUnits="userSpaceOnUse">
<stop stop-color="#222529"/>
<stop offset="0.817708" stop-color="#EAF1F9"/>
</linearGradient>
<linearGradient id="paint16_linear" x1="70.8118" y1="127.787" x2="84.3766" y2="115.044" gradientUnits="userSpaceOnUse">
<stop stop-color="#24272B"/>
<stop offset="1" stop-color="#EAF1F9"/>
</linearGradient>
<linearGradient id="paint17_linear" x1="80.7921" y1="123.447" x2="81.6375" y2="118.066" gradientUnits="userSpaceOnUse">
<stop stop-color="#222529"/>
<stop offset="0.817708" stop-color="#EAF1F9"/>
</linearGradient>
<linearGradient id="paint18_linear" x1="81.2582" y1="128.431" x2="94.1284" y2="112.337" gradientUnits="userSpaceOnUse">
<stop stop-color="#222529"/>
<stop offset="0.817708" stop-color="#EAF1F9"/>
</linearGradient>
<linearGradient id="paint19_linear" x1="74.1992" y1="132.561" x2="76.1927" y2="121.5" gradientUnits="userSpaceOnUse">
<stop stop-color="#222529"/>
<stop offset="0.817708" stop-color="#EAF1F9"/>
</linearGradient>
<linearGradient id="paint20_linear" x1="82.9627" y1="142.086" x2="88.4383" y2="130.188" gradientUnits="userSpaceOnUse">
<stop stop-color="#24272B"/>
<stop offset="1" stop-color="#EAF1F9"/>
</linearGradient>
<linearGradient id="paint21_linear" x1="91.3307" y1="145.922" x2="99.3146" y2="126.335" gradientUnits="userSpaceOnUse">
<stop stop-color="#222529"/>
<stop offset="0.817708" stop-color="#EAF1F9"/>
</linearGradient>
<linearGradient id="paint22_linear" x1="66.209" y1="106.773" x2="80.5326" y2="99.4075" gradientUnits="userSpaceOnUse">
<stop stop-color="#24272B"/>
<stop offset="1" stop-color="#EAF1F9"/>
</linearGradient>
<linearGradient id="paint23_linear" x1="71.1913" y1="84.9173" x2="72.6904" y2="78.1611" gradientUnits="userSpaceOnUse">
<stop stop-color="#222529"/>
<stop offset="0.817708" stop-color="#EAF1F9"/>
</linearGradient>
<linearGradient id="paint24_linear" x1="64.7818" y1="81.369" x2="75.6489" y2="58.0859" gradientUnits="userSpaceOnUse">
<stop stop-color="#222529"/>
<stop offset="0.817708" stop-color="#EAF1F9"/>
</linearGradient>
<linearGradient id="paint25_linear" x1="69.4364" y1="82.8993" x2="80.7893" y2="79.0208" gradientUnits="userSpaceOnUse">
<stop stop-color="#24272B"/>
<stop offset="1" stop-color="#EAF1F9"/>
</linearGradient>
<linearGradient id="paint26_linear" x1="75.6921" y1="65.082" x2="76.7882" y2="58.9777" gradientUnits="userSpaceOnUse">
<stop stop-color="#222529"/>
<stop offset="0.817708" stop-color="#EAF1F9"/>
</linearGradient>
<linearGradient id="paint27_linear" x1="111.711" y1="149.575" x2="126.13" y2="128.925" gradientUnits="userSpaceOnUse">
<stop stop-color="#222529"/>
<stop offset="0.817708" stop-color="#EAF1F9"/>
</linearGradient>
<linearGradient id="paint28_linear" x1="114.097" y1="33.0674" x2="116.187" y2="25.1065" gradientUnits="userSpaceOnUse">
<stop stop-color="#24272B"/>
<stop offset="1" stop-color="#EAF1F9"/>
</linearGradient>
<linearGradient id="paint29_linear" x1="132.936" y1="38.682" x2="134.317" y2="32.1175" gradientUnits="userSpaceOnUse">
<stop stop-color="#24272B"/>
<stop offset="1" stop-color="#EAF1F9"/>
</linearGradient>
<linearGradient id="paint30_linear" x1="156.576" y1="79.6878" x2="158.421" y2="71.4361" gradientUnits="userSpaceOnUse">
<stop stop-color="#222529"/>
<stop offset="0.817708" stop-color="#EAF1F9"/>
</linearGradient>
<linearGradient id="paint31_linear" x1="79.3518" y1="60.1249" x2="94.3546" y2="50.2121" gradientUnits="userSpaceOnUse">
<stop stop-color="#24272B"/>
<stop offset="1" stop-color="#EAF1F9"/>
</linearGradient>
<linearGradient id="paint32_linear" x1="63.233" y1="111.938" x2="63.2922" y2="109.971" gradientUnits="userSpaceOnUse">
<stop stop-color="#222529"/>
<stop offset="0.817708" stop-color="#EAF1F9"/>
</linearGradient>
<linearGradient id="paint33_linear" x1="131.475" y1="142.88" x2="148.012" y2="126.648" gradientUnits="userSpaceOnUse">
<stop stop-color="#222529"/>
<stop offset="0.817708" stop-color="#EAF1F9"/>
</linearGradient>
<linearGradient id="paint34_linear" x1="144.694" y1="127.072" x2="158.302" y2="106.564" gradientUnits="userSpaceOnUse">
<stop stop-color="#222529"/>
<stop offset="0.817708" stop-color="#EAF1F9"/>
</linearGradient>
<linearGradient id="paint35_linear" x1="153.861" y1="104.652" x2="162.012" y2="87.1894" gradientUnits="userSpaceOnUse">
<stop stop-color="#222529"/>
<stop offset="0.817708" stop-color="#EAF1F9"/>
</linearGradient>
<linearGradient id="paint36_linear" x1="137.728" y1="48.8259" x2="140.034" y2="38.7187" gradientUnits="userSpaceOnUse">
<stop stop-color="#222529"/>
<stop offset="0.817708" stop-color="#EAF1F9"/>
</linearGradient>
<linearGradient id="paint37_linear" x1="204" y1="129.778" x2="314.11" y2="-53.3567" gradientUnits="userSpaceOnUse">
<stop stop-color="#222529"/>
<stop offset="0.817708" stop-color="#EAF1F9"/>
</linearGradient>
</defs>
</svg>
