<svg width="21" height="20" viewBox="0 0 21 20" fill="none" xmlns="http://www.w3.org/2000/svg">
<path opacity="0.4" d="M9.68054 5.58792C9.68054 5.15782 9.31501 4.80965 8.86346 4.80965L4.91628 4.59509C4.34084 4.59509 3.87496 5.03982 3.87496 5.58792C3.87496 6.13602 4.34084 6.57977 4.91628 6.57977L8.86346 6.36619C9.31501 6.36619 9.68054 6.01801 9.68054 5.58792Z" fill="#831F1E"/>
<path d="M17.6264 6.6503C17.6264 6.6503 17.8639 6.42696 17.9673 6.28847C18.127 6.08756 18.2069 5.83984 18.2069 5.5931C18.2069 5.31612 18.1168 5.05865 17.9468 4.84897C17.9069 4.81093 17.7564 4.64904 17.6161 4.51543C16.796 3.67669 14.655 2.30448 13.5338 1.88512C13.3638 1.8188 12.9338 1.67543 12.7034 1.66666C12.4843 1.66666 12.2733 1.71347 12.0737 1.80905C11.8238 1.94266 11.6232 2.15234 11.5136 2.40006C11.4429 2.57171 11.3334 3.08568 11.3334 3.09543C11.2228 3.65816 11.1634 4.57297 11.1634 5.58335C11.1634 6.54594 11.2228 7.42271 11.3129 7.99422C11.3232 8.00397 11.4327 8.6418 11.5535 8.86124C11.7737 9.2611 12.2037 9.50979 12.6635 9.50979L12.7034 9.50979C13.0034 9.50004 13.6341 9.25135 13.6341 9.24257C14.6949 8.8232 16.7857 7.51731 17.6264 6.6503Z" fill="#831F1E"/>
<path opacity="0.4" d="M11.2159 14.4122C11.2159 14.8423 11.5814 15.1905 12.033 15.1905L15.9803 15.4041C16.5557 15.4041 17.0216 14.9603 17.0216 14.4122C17.0216 13.8641 16.5557 13.4194 15.9803 13.4194L12.033 13.634C11.5814 13.634 11.2159 13.9821 11.2159 14.4122Z" fill="#831F1E"/>
<path d="M8.823 18.1909C9.07284 18.0573 9.27251 17.8476 9.38309 17.5999C9.45374 17.4283 9.5633 16.9133 9.5633 16.9045C9.67389 16.3418 9.73328 15.427 9.73328 14.4166C9.73328 13.454 9.67389 12.5773 9.58378 12.0057C9.57354 11.996 9.46296 11.3582 9.34316 11.1387C9.12301 10.7379 8.69296 10.4902 8.23219 10.4902L8.19226 10.4902C7.89224 10.4999 7.26252 10.7476 7.26252 10.7574C6.20173 11.1768 4.10983 12.4817 3.27021 13.3497C3.27021 13.3497 3.03266 13.573 2.93026 13.7115C2.7695 13.9114 2.68964 14.1591 2.68964 14.4078C2.68964 14.6838 2.77974 14.9403 2.94972 15.151C2.98965 15.189 3.14017 15.3509 3.27942 15.4845C4.10062 16.3223 6.24166 17.6955 7.36185 18.1139C7.53182 18.1812 7.96289 18.3245 8.19226 18.3333C8.4124 18.3333 8.62333 18.2865 8.823 18.1909Z" fill="#831F1E"/>
</svg>
