<svg width="14" height="15" viewBox="0 0 14 15" fill="none" xmlns="http://www.w3.org/2000/svg">
<path fill-rule="evenodd" clip-rule="evenodd" d="M12.1372 4.607L11.7741 3.97695C11.4669 3.44383 10.7862 3.25991 10.2524 3.56581V3.56581C9.99826 3.71551 9.69503 3.75798 9.40956 3.68386C9.12409 3.60974 8.87983 3.42511 8.73064 3.17069C8.63466 3.00898 8.58308 2.82479 8.58113 2.63675V2.63675C8.58979 2.33527 8.47605 2.04313 8.26583 1.82687C8.0556 1.6106 7.76679 1.48865 7.46519 1.48877H6.73369C6.43821 1.48877 6.15491 1.60651 5.94648 1.81594C5.73805 2.02538 5.62166 2.30924 5.62309 2.60471V2.60471C5.61433 3.21476 5.11726 3.7047 4.50714 3.70464C4.3191 3.70268 4.13491 3.65111 3.9732 3.55513V3.55513C3.43935 3.24923 2.75863 3.43315 2.45146 3.96627L2.06168 4.607C1.75489 5.13945 1.9363 5.81974 2.46748 6.12874V6.12874C2.81276 6.32808 3.02546 6.69649 3.02546 7.09518C3.02546 7.49387 2.81276 7.86227 2.46748 8.06161V8.06161C1.93697 8.36852 1.75536 9.04717 2.06168 9.57801V9.57801L2.4301 10.2134C2.57402 10.4731 2.8155 10.6647 3.10109 10.7459C3.38669 10.8271 3.69285 10.7911 3.95184 10.6459V10.6459C4.20644 10.4973 4.50984 10.4566 4.79459 10.5328C5.07935 10.609 5.32187 10.7958 5.46824 11.0517C5.56422 11.2134 5.61579 11.3976 5.61775 11.5856V11.5856C5.61775 12.202 6.11737 12.7016 6.73369 12.7016H7.46519C8.07943 12.7016 8.57819 12.2052 8.58113 11.591V11.591C8.5797 11.2946 8.69682 11.0099 8.90641 10.8003C9.116 10.5907 9.40067 10.4736 9.69707 10.475C9.88466 10.4801 10.0681 10.5314 10.231 10.6245V10.6245C10.7635 10.9313 11.4438 10.7499 11.7528 10.2187V10.2187L12.1372 9.57801C12.286 9.3226 12.3268 9.0184 12.2507 8.73278C12.1745 8.44715 11.9876 8.20368 11.7314 8.05627V8.05627C11.4752 7.90887 11.2883 7.66539 11.2121 7.37977C11.136 7.09415 11.1768 6.78995 11.3256 6.53454C11.4224 6.36559 11.5625 6.22551 11.7314 6.12874V6.12874C12.2594 5.81991 12.4404 5.1436 12.1372 4.61234V4.61234V4.607Z" stroke="#24272B" stroke-linecap="round" stroke-linejoin="round"/>
<ellipse cx="7.10209" cy="7.09513" rx="1.53776" ry="1.53776" stroke="#24272B" stroke-linecap="round" stroke-linejoin="round"/>
</svg>
