<svg width="12" height="14" viewBox="0 0 12 14" fill="none" xmlns="http://www.w3.org/2000/svg">
<path d="M0.353088 8.54163L7.81224 3.8791C7.9793 3.77522 8.19318 3.78516 8.3496 3.90783C9.05827 4.4615 9.6914 5.0229 10.1138 5.49479C10.1138 5.49479 10.4777 5.87275 10.6352 6.11256C10.8895 6.43968 11.0119 6.86736 11.0119 7.28289C11.0119 7.74925 10.8778 8.1902 10.6108 8.54274C10.5501 8.60573 10.3192 8.88312 10.1011 9.10967C8.82843 10.5198 5.5064 12.8494 3.75919 13.5556C3.50487 13.6694 2.82599 13.907 2.47379 13.9203C2.13435 13.9203 1.80661 13.8451 1.49165 13.6805C1.10432 13.4539 0.801063 13.1025 0.630811 12.6859C0.521212 12.3963 0.352024 11.5277 0.352024 11.5023C0.242425 10.8823 0.160491 10.0115 0.120056 8.99473C0.112608 8.81239 0.203054 8.63557 0.353088 8.54163" fill="#297E4A"/>
<path opacity="0.4" d="M0.851966 6.03035C0.523167 6.237 0.109243 5.97288 0.125204 5.57614C0.164574 4.64562 0.232675 3.82562 0.315673 3.21558C0.328442 3.20232 0.497629 2.1204 0.692355 1.75461C1.03179 1.07495 1.6979 0.659424 2.41403 0.659424H2.47361C2.93542 0.67158 3.91756 1.08711 3.91756 1.11253C4.41235 1.3214 5.05825 1.67504 5.75309 2.10051C6.06592 2.2928 6.07337 2.76469 5.76054 2.9603L0.851966 6.03035Z" fill="#297E4A"/>
</svg>
