<svg width="16" height="16" viewBox="0 0 16 16" fill="none" xmlns="http://www.w3.org/2000/svg">
<path opacity="0.4" d="M11.2552 0.499878H4.75274C2.21024 0.499878 0.500244 2.28488 0.500244 4.93988V11.0674C0.500244 13.7149 2.21024 15.4999 4.75274 15.4999H11.2552C13.7977 15.4999 15.5002 13.7149 15.5002 11.0674V4.93988C15.5002 2.28488 13.7977 0.499878 11.2552 0.499878Z" fill="white"/>
<path d="M7.11008 10.436C6.94208 10.436 6.77408 10.3722 6.64583 10.244L4.86608 8.46422C4.60958 8.20772 4.60958 7.79222 4.86608 7.53647C5.12258 7.27997 5.53733 7.27922 5.79383 7.53572L7.11008 8.85197L10.2061 5.75597C10.4626 5.49947 10.8773 5.49947 11.1338 5.75597C11.3903 6.01247 11.3903 6.42797 11.1338 6.68447L7.57433 10.244C7.44608 10.3722 7.27808 10.436 7.11008 10.436Z" fill="white"/>
</svg>
